<svg xmlns="http://www.w3.org/2000/svg" viewBox="0 0 80 80" fill="none">
  <defs>
    <linearGradient id="gWave1" x1="0" y1="28" x2="80" y2="40" gradientUnits="userSpaceOnUse"><stop offset="0%" stop-color="#38BDF8"/><stop offset="100%" stop-color="#0284C7"/></linearGradient>
    <linearGradient id="gWave2" x1="0" y1="38" x2="80" y2="52" gradientUnits="userSpaceOnUse"><stop offset="0%" stop-color="#7DD3FC"/><stop offset="100%" stop-color="#0EA5E9"/></linearGradient>
    <linearGradient id="gWave3" x1="0" y1="48" x2="80" y2="62" gradientUnits="userSpaceOnUse"><stop offset="0%" stop-color="#BAE6FD"/><stop offset="100%" stop-color="#38BDF8"/></linearGradient>
  </defs>
  <path d="M4 34 Q14 20 26 34 Q38 48 50 34 Q62 20 76 34 V50 Q62 36 50 50 Q38 64 26 50 Q14 36 4 50Z" fill="url(#gWave1)" opacity="0.9"/>
  <path d="M4 42 Q16 30 28 42 Q40 54 52 42 Q64 30 76 42 V56 Q64 44 52 56 Q40 68 28 56 Q16 44 4 56Z" fill="url(#gWave2)" opacity="0.6"/>
  <path d="M4 50 Q18 40 30 50 Q42 60 54 50 Q66 40 76 50 V60 Q66 52 54 60 Q42 68 30 60 Q18 52 4 60Z" fill="url(#gWave3)" opacity="0.4"/>
  <circle cx="20" cy="26" r="2" fill="#E0F2FE" opacity="0.5"/>
  <circle cx="56" cy="24" r="1.5" fill="#E0F2FE" opacity="0.4"/>
</svg>
